<svg xmlns="http://www.w3.org/2000/svg" width="530.5" height="431.4" viewBox="0 0 530.5 431.4">
  <g id="Group_18" data-name="Group 18" transform="translate(-1244.7 847.9)">
    <g id="Group_7" data-name="Group 7" transform="translate(1188.5 -951.5)">
      <g id="Group_3" data-name="Group 3" transform="translate(7947 -5963)">
        <path id="Path_24-2" d="M-7360.3,6066.6c-2,1.3.4,28.8-18.9,40.9l-210.6,138.3-3.1,135.2s3.1,15.7-22,31.4V6230Z" fill="#e88a21"/>
      </g>
      <g id="Group_4" data-name="Group 4" transform="translate(7947 -5963)">
        <path id="Path_26-2" d="M-7416.8,6157.7s6.3,18.9-18.9,40.9l-113.2,72.3V6318s0,15.7-22,25.1v-84.9" fill="#e5dada"/>
      </g>
      <g id="Group_5" data-name="Group 5" transform="translate(7947 -5963)">
        <path id="Path_25-2" d="M-7890.8,6066.6c2,1.3-.4,28.8,18.9,40.9l210.6,138.3,3.1,135.2s-3.1,15.7,22,31.4V6230Z" fill="#e88a21"/>
      </g>
      <g id="Group_6" data-name="Group 6" transform="translate(7947 -5963)">
        <path id="Path_27-2" d="M-7834.2,6157.7s-6.3,18.9,18.9,40.9l113.2,72.3V6318s0,15.7,22,25.1v-84.9" fill="#e5dada"/>
      </g>
    </g>
    <g id="Group_8" data-name="Group 8" transform="translate(9135.5 -6914.5)">
      <text id="A" transform="translate(-7880 6487)" fill="#e88a21" font-size="50" font-family="NeuropoliticalRg-Regular, Neuropolitical"><tspan x="0" y="0">A</tspan></text>
    </g>
    <g id="Group_9" data-name="Group 9" transform="translate(9135.5 -6914.5)">
      <text id="L" transform="translate(-7818 6487)" fill="#e88a21" font-size="50" font-family="NeuropoliticalRg-Regular, Neuropolitical"><tspan x="0" y="0">L</tspan></text>
    </g>
    <g id="Group_10" data-name="Group 10" transform="translate(9135.5 -6914.5)">
      <text id="P" transform="translate(-7770 6487)" fill="#e88a21" font-size="50" font-family="NeuropoliticalRg-Regular, Neuropolitical"><tspan x="0" y="0">P</tspan></text>
    </g>
    <g id="Group_11" data-name="Group 11" transform="translate(9135.5 -6914.5)">
      <text id="H" transform="translate(-7715 6487)" fill="#e88a21" font-size="50" font-family="NeuropoliticalRg-Regular, Neuropolitical"><tspan x="0" y="0">H</tspan></text>
    </g>
    <g id="Group_12" data-name="Group 12" transform="translate(9135.5 -6914.5)">
      <text id="A-2" data-name="A" transform="translate(-7659 6487)" fill="#e88a21" font-size="50" font-family="NeuropoliticalRg-Regular, Neuropolitical"><tspan x="0" y="0">A</tspan></text>
    </g>
    <g id="Group_13" data-name="Group 13" transform="translate(9135.5 -6914.5)">
      <text id="N" transform="translate(-7597 6487)" fill="#fff8f0" font-size="50" font-family="NeuropoliticalRg-Regular, Neuropolitical"><tspan x="0" y="0">N</tspan></text>
    </g>
    <g id="Group_14" data-name="Group 14" transform="translate(9135.5 -6914.5)">
      <text id="I" transform="translate(-7541 6487)" fill="#fff8f0" font-size="50" font-family="NeuropoliticalRg-Regular, Neuropolitical"><tspan x="0" y="0">I</tspan></text>
    </g>
    <g id="Group_15" data-name="Group 15" transform="translate(9135.5 -6914.5)">
      <text id="T" transform="translate(-7517 6487)" fill="#fff8f0" font-size="50" font-family="NeuropoliticalRg-Regular, Neuropolitical"><tspan x="0" y="0">T</tspan></text>
    </g>
    <g id="Group_16" data-name="Group 16" transform="translate(9135.5 -6914.5)">
      <text id="E" transform="translate(-7469 6487)" fill="#fff8f0" font-size="50" font-family="NeuropoliticalRg-Regular, Neuropolitical"><tspan x="0" y="0">E</tspan></text>
    </g>
    <g id="Group_17" data-name="Group 17" transform="translate(9135.5 -6914.5)">
      <text id="S" transform="translate(-7418 6487)" fill="#fff8f0" font-size="50" font-family="NeuropoliticalRg-Regular, Neuropolitical"><tspan x="0" y="0">S</tspan></text>
    </g>
  </g>
</svg>
